# xmcd
#
# Track frame offsets: 
#        150
#        17742
#        42844
#        65850
#        83850
#        131035
#        144601
#        177494
#        193614
#        216309
#        229302
#        241587
#        277624
#        289626
#        312752
#        334637
#
# Disc length: 4770 seconds
#
# Revision: 0
# Processed by: cddbd v1.5.2PL0 Copyright (c) Steve Scherf et al.
# Submitted via: ExactAudioCopy v1.1
#
DISCID=e912a010
DTITLE=Various Artist - Akella Presents - vol.106 - Blues-Rock  CD1
DYEAR=2017
DGENRE=Blues
TTITLE0=Smokey Fingers - The Basement
TTITLE1=Blue Max with Howard 'Guitar' Luedtke - The Same Thing
TTITLE2=Sean Chambers - Trouble and Whiskey
TTITLE3=Bonafide - Bottle Of Jack
TTITLE4=Tony Sarno - Voodoo Chile
TTITLE5=Sideburn - Long Road To Paradise
TTITLE6=Robin Trower - Returned In Kind
TTITLE7=Devil's Hollow - This Way
TTITLE8=Samuel Eddy - Falsely Accused
TTITLE9=100 Watt Vipers - Hell To Pay
TTITLE10=Rhino Bucket - A Swing and a Miss
TTITLE11=Boneyard Dog - Boneyard Dog
TTITLE12=The Rex Carroll Band - Walk A Mile
TTITLE13=Guitar Shorty - I'm Gonna Leave You
TTITLE14=Hardbone - What's Going On
TTITLE15=Fink - Hour Golden
EXTD=
EXTT0=
EXTT1=
EXTT2=
EXTT3=
EXTT4=
EXTT5=
EXTT6=
EXTT7=
EXTT8=
EXTT9=
EXTT10=
EXTT11=
EXTT12=
EXTT13=
EXTT14=
EXTT15=
PLAYORDER=
